<svg width="89" height="48" viewBox="0 0 89 48" fill="none" xmlns="http://www.w3.org/2000/svg">
<rect width="48" height="48" rx="24" fill="#AAD813"/>
<path d="M21.588 34L14.42 14.4H18.256L23.8 30.332L29.372 14.4H33.152L25.984 34H21.588ZM40.3942 34.336C39.0502 34.336 37.8368 34.028 36.7542 33.412C35.6902 32.796 34.8408 31.9467 34.2062 30.864C33.5902 29.7627 33.2822 28.4933 33.2822 27.056C33.2822 25.6187 33.5995 24.3587 34.2342 23.276C34.8688 22.1747 35.7182 21.316 36.7822 20.7C37.8648 20.084 39.0782 19.776 40.4222 19.776C41.7475 19.776 42.9422 20.084 44.0062 20.7C45.0888 21.316 45.9382 22.1747 46.5542 23.276C47.1888 24.3587 47.5062 25.6187 47.5062 27.056C47.5062 28.4933 47.1888 29.7627 46.5542 30.864C45.9382 31.9467 45.0888 32.796 44.0062 33.412C42.9235 34.028 41.7195 34.336 40.3942 34.336ZM40.3942 31.228C41.3275 31.228 42.1395 30.8827 42.8302 30.192C43.5208 29.4827 43.8662 28.4373 43.8662 27.056C43.8662 25.6747 43.5208 24.6387 42.8302 23.948C42.1395 23.2387 41.3368 22.884 40.4222 22.884C39.4702 22.884 38.6488 23.2387 37.9582 23.948C37.2862 24.6387 36.9502 25.6747 36.9502 27.056C36.9502 28.4373 37.2862 29.4827 37.9582 30.192C38.6488 30.8827 39.4608 31.228 40.3942 31.228ZM50.7106 34V13.84H54.2946V34H50.7106ZM63.1647 34.336C61.4287 34.336 60.0847 33.7947 59.1327 32.712C58.1994 31.6293 57.7327 30.0427 57.7327 27.952V20.112H61.2887V27.616C61.2887 28.8107 61.5314 29.7253 62.0167 30.36C62.5021 30.9947 63.2674 31.312 64.3127 31.312C65.3021 31.312 66.1141 30.9573 66.7487 30.248C67.4021 29.5387 67.7287 28.5493 67.7287 27.28V20.112H71.3127V34H68.1487L67.8687 31.648C67.4394 32.4693 66.8141 33.1227 65.9927 33.608C65.1901 34.0933 64.2474 34.336 63.1647 34.336ZM73.6759 34L78.7159 27.056L73.6759 20.112H77.5119L81.0399 25.04L84.5399 20.112H88.4039L83.3359 27.056L88.4039 34H84.5399L81.0399 29.072L77.5119 34H73.6759Z" fill="white"/>
<rect width="16" height="3.6" transform="translate(16 36)" fill="white"/>
</svg>
